/* XPM */
static char *default_icon[] = {
/* columns rows colors chars-per-pixel */
"16 16 40 1 ",
"  c #204A87",
". c #3465A4",
"X c #729FCF",
"o c #888A85",
"O c #D7DBD4",
"+ c #D8DBD4",
"@ c #D9DCD5",
"# c #D9DCD6",
"$ c #D9DDD6",
"% c #DADDD7",
"& c #DBDED7",
"* c #DBDED8",
"= c #DCDED8",
"- c #DCDFD8",
"; c #DCDED9",
": c #DCDFD9",
"> c #DDDFD9",
", c #DDDFDA",
"< c #DDE0DA",
"1 c #DDE0DB",
"2 c #DEE0DA",
"3 c #DEE1DB",
"4 c #DFE1DB",
"5 c #DFE1DC",
"6 c #DFE2DC",
"7 c #E0E2DC",
"8 c #E0E2DD",
"9 c #E0E3DD",
"0 c #E1E3DD",
"q c #E1E3DE",
"w c #E1E3DF",
"e c #E2E3DE",
"r c #E2E4DF",
"t c #E2E5DF",
"y c #E3E4E0",
"u c #E3E5E0",
"i c #E4E6E2",
"p c #E5E6E2",
"a c #FFFFFF",
"s c None",
/* pixels */
"ssssssssssssssss",
"ssssssssssssssss",
"s              s",
"s XXXXXXXXXXXX s",
"s X..........X s",
"soaO+@+@$%=:,aos",
"soa#$%$%*><<5aos",
"soa&=;=;:1478aos",
"soa->2>2558qwaos",
"soa<36369qrtuaos",
"soa680369qrtuaos",
"soa68080eyuipaos",
"soaaaaaaaaaaaaos",
"soooooooooooooos",
"ssssssssssssssss",
"ssssssssssssssss"
};
