/* XPM */
static char *stock_arranged[] = {
/* columns rows colors chars-per-pixel */
"16 16 2 1 ",
"  c gray3",
". c None",
/* pixels */
"................",
"................",
".              .",
". .... ....... .",
". .... ....... .",
". .... ....... .",
".      ....... .",
". .... ....... .",
". .... ....... .",
".      ....... .",
". .... ....... .",
". .... ....... .",
". .... ....... .",
".              .",
"................",
"................"
};
