/* XPM */
static char *stock_unmaximize[] = {
/* columns rows colors chars-per-pixel */
"16 16 3 1 ",
"  c gray12",
". c gray39",
"X c None",
/* pixels */
"XXXXXXXXXXXXXXXX",
"XXXXXXXXXXXXXXXX",
"XX............XX",
"XX............XX",
"XX............XX",
"XX.X        X.XX",
"XX.X        X.XX",
"XX.X        X.XX",
"XX.X XXXXXX X.XX",
"XX.X XXXXXX X.XX",
"XX.X XXXXXX X.XX",
"XX.X        X.XX",
"XX.XXXXXXXXXX.XX",
"XX............XX",
"XXXXXXXXXXXXXXXX",
"XXXXXXXXXXXXXXXX"
};
