/* XPM */
static char *stock_unmaximize_h[] = {
/* columns rows colors chars-per-pixel */
"16 16 4 1 ",
"  c gray12",
". c gray39",
"X c #948E8D",
"o c None",
/* pixels */
"oooooooooooooooo",
"oooooooooooooooo",
"oo        ....oo",
"oo        ooo.oo",
"oo        ....oo",
"oo oooooo oo..oo",
"oo oooooo o. .oo",
"oo oooooo .  .oo",
"oo oooooo    .oo",
"oo oooooo X  .oo",
"oo oooooo oX .oo",
"oo oooooo ooX.oo",
"oo oooooo ooo.oo",
"oo        ....oo",
"oooooooooooooooo",
"oooooooooooooooo"
};
