/* XPM */
static char *stock_unstick[] = {
/* columns rows colors chars-per-pixel */
"16 16 3 1 ",
"  c #1F1F1F",
". c gray39",
"X c None",
/* pixels */
"XXXXXXXXXXXXXXXX",
"XXXXXXXXXXXXXXXX",
"X          XXXXX",
"X          X...X",
"X          X...X",
"X XXXXXXXX XX.XX",
"X XXXXXXXX XX.XX",
"X XXXXXXXX XX.XX",
"X XXXXXXXX XX.XX",
"X XXXXXXXX XX.XX",
"X XXXXXXXX XX.XX",
"X XXXXXXXX XX.XX",
"X XXXXXXXX XXXXX",
"X          XXXXX",
"XXXXXXXXXXXXXXXX",
"XXXXXXXXXXXXXXXX"
};
