/* XPM */
static char *stock_raise[] = {
/* columns rows colors chars-per-pixel */
"16 16 2 1 ",
"  c gray12",
". c None",
/* pixels */
"................",
"................",
".....         ..",
".....         ..",
".....         ..",
"..... ....... ..",
"..    ....... ..",
"..    ....... ..",
"..    ....... ..",
".. .. ....... ..",
".. ..         ..",
".. ....... .....",
".. ....... .....",
"..         .....",
"................",
"................"
};
