/* XPM */
static char *stock_shade[] = {
/* columns rows colors chars-per-pixel */
"16 16 4 1 ",
"  c gray12",
". c gray39",
"X c gray50",
"o c None",
/* pixels */
"oooooooooooooooo",
"oooooooooooooooo",
"oo            oo",
"oo            oo",
"oo            oo",
"oooooooX.ooooooo",
"ooooooX  .oooooo",
"oooooX    .ooooo",
"ooooX o  o .oooo",
"oooX oo  oo .ooo",
"ooooooo  ooooooo",
"ooooooo  ooooooo",
"ooooooo  ooooooo",
"ooooooo  ooooooo",
"oooooooooooooooo",
"oooooooooooooooo"
};
