/* XPM */
static char *stock_maximus_l[] = {
/* columns rows colors chars-per-pixel */
"16 16 3 1 ",
"  c gray3",
"- c #3C3C3C",
". c None",
/* pixels */
"        ........",
" ...... ........",
"        ......-.",
" ...... .....--.",
" ...... ....---.",
" ...... ...----.",
" ...... ..-----.",
" ...... .------.",
" ...... .------.",
" ...... ..-----.",
" ...... ...----.",
" ...... ....---.",
" ...... .....--.",
" ...... ......-.",
" ...... ........",
"        ........"
};
