/* XPM */
static char *stock_maximize_h[] = {
/* columns rows colors chars-per-pixel */
"16 16 6 1 ",
"  c gray3",
". c gray12",
"X c #3C3C3C",
"o c gray39",
"O c gray50",
"+ c None",
/* pixels */
"++++++++++++++++",
"++++++++++++++++",
"++............++",
"++.           ++",
"++............++",
"++.++++++++++.++",
"++.++O++++o++.++",
"++.+O.++++.o+.++",
"++.O..+X++..o.++",
"++............++",
"++.O..++++..o.++",
"++.+O.++++.o+.++",
"++.++O++++o++.++",
"++............++",
"++++++++++++++++",
"++++++++++++++++"
};
